<svg width="45" height="43" viewBox="0 0 45 43" fill="none" xmlns="http://www.w3.org/2000/svg">
<g clip-path="url(#clip0_61_66)">
<path d="M41.4843 18.1403C40.7155 18.1405 39.9682 18.3831 39.3583 18.8304C39.2882 18.1353 38.9937 17.4783 38.5155 16.9503C38.0374 16.4223 37.3992 16.0494 36.6895 15.8833C37.0684 15.2863 37.2437 14.5915 37.1911 13.895C37.1385 13.1986 36.8605 12.535 36.3957 11.9962C37.158 11.9004 37.8659 11.5671 38.4099 11.0478C38.806 10.6712 39.1024 10.2096 39.2747 9.70167C39.4469 9.19371 39.4899 8.65383 39.4002 8.1268C39.3105 7.59977 39.0906 7.10077 38.7587 6.67117C38.4269 6.24157 37.9926 5.89375 37.492 5.65653C36.9914 5.41932 36.4388 5.29955 35.88 5.30716C35.3213 5.31476 34.7725 5.44952 34.2792 5.70027C33.7858 5.95102 33.3621 6.31052 33.0432 6.74898C32.7243 7.18744 32.5194 7.69223 32.4454 8.22148C31.8815 7.77733 31.1871 7.51171 30.4583 7.46141C29.7294 7.41111 29.0023 7.57862 28.3775 7.94074C28.2036 7.26253 27.8134 6.65274 27.2609 6.19583C26.7083 5.73891 26.0207 5.45748 25.2934 5.3905C25.6914 4.89275 25.9359 4.29855 25.9992 3.67504C26.0624 3.05152 25.942 2.42351 25.6515 1.86195C25.3609 1.30038 24.9118 0.827634 24.3549 0.497095C23.7981 0.166555 23.1555 -0.00860596 22.4999 -0.00860596C21.8444 -0.00860596 21.2018 0.166555 20.645 0.497095C20.0881 0.827634 19.639 1.30038 19.3484 1.86195C19.0579 2.42351 18.9375 3.05152 19.0007 3.67504C19.064 4.29855 19.3085 4.89275 19.7065 5.3905C18.9792 5.45748 18.2916 5.73891 17.739 6.19583C17.1865 6.65274 16.7963 7.26253 16.6224 7.94074C15.9976 7.5787 15.2704 7.41124 14.5416 7.46153C13.8128 7.51182 13.1184 7.77739 12.5544 8.22146C12.4796 7.6932 12.2741 7.18957 11.9551 6.75225C11.636 6.31492 11.2126 5.95648 10.7198 5.70659C10.227 5.45669 9.67902 5.32252 9.12119 5.31518C8.56336 5.30783 8.01171 5.42753 7.5119 5.66436C7.01209 5.90119 6.57849 6.24835 6.24697 6.67711C5.91545 7.10587 5.69555 7.6039 5.60546 8.12999C5.51537 8.65609 5.55767 9.19512 5.72889 9.70249C5.9001 10.2099 6.19529 10.671 6.59003 11.0477C7.13391 11.567 7.84188 11.9005 8.60418 11.9962C8.13939 12.535 7.86143 13.1986 7.8088 13.895C7.75617 14.5914 7.93147 15.2863 8.31042 15.8833C7.60066 16.0494 6.96251 16.4223 6.48434 16.9503C6.00618 17.4783 5.71165 18.1353 5.64156 18.8304C5.12065 18.45 4.49883 18.2164 3.84631 18.1559C3.19379 18.0955 2.53657 18.2105 1.94889 18.4882C1.3612 18.7658 0.866468 19.1949 0.520555 19.7271C0.174641 20.2592 -0.00866699 20.8732 -0.00866699 21.4996C-0.00866699 22.1261 0.174641 22.74 0.520555 23.2722C0.866468 23.8043 1.3612 24.2334 1.94889 24.5111C2.53657 24.7887 3.19379 24.9038 3.84631 24.8433C4.49883 24.7828 5.12065 24.5492 5.64156 24.1689C5.71165 24.8639 6.00618 25.5209 6.48434 26.0489C6.96251 26.5769 7.60066 26.9498 8.31042 27.1159C7.93146 27.7129 7.75615 28.4078 7.80879 29.1042C7.86142 29.8007 8.13939 30.4643 8.6042 31.0031C8.05187 31.0751 7.52541 31.2717 7.06833 31.5766C6.61126 31.8815 6.2367 32.286 5.97561 32.7566C5.71453 33.2272 5.57442 33.7505 5.56687 34.2831C5.55932 34.8157 5.68454 35.3424 5.93219 35.8196C6.17984 36.2968 6.5428 36.7109 6.99107 37.0275C7.43933 37.3441 7.96003 37.5543 8.51011 37.6405C9.06019 37.7268 9.62386 37.6867 10.1545 37.5236C10.6852 37.3604 11.1676 37.079 11.5619 36.7024C12.1053 36.1827 12.4543 35.5062 12.5545 34.7778C13.1183 35.2219 13.8128 35.4875 14.5416 35.5378C15.2705 35.5881 15.9976 35.4206 16.6224 35.0585C16.7962 35.7367 17.1865 36.3465 17.739 36.8034C18.2916 37.2603 18.9792 37.5418 19.7065 37.6087C19.3085 38.1065 19.064 38.7007 19.0007 39.3242C18.9374 39.9477 19.0579 40.5757 19.3484 41.1373C19.639 41.6989 20.088 42.1716 20.6449 42.5021C21.2018 42.8327 21.8444 43.0078 22.4999 43.0078C23.1555 43.0078 23.798 42.8327 24.3549 42.5021C24.9118 42.1716 25.3609 41.6989 25.6514 41.1373C25.942 40.5757 26.0624 39.9477 25.9991 39.3242C25.9359 38.7007 25.6914 38.1065 25.2933 37.6087C26.0207 37.5418 26.7083 37.2603 27.2608 36.8034C27.8134 36.3465 28.2036 35.7367 28.3774 35.0585C29.0022 35.4208 29.7294 35.5884 30.4583 35.5381C31.1871 35.4878 31.8816 35.2221 32.4454 34.7779C32.5456 35.5063 32.8945 36.1827 33.4379 36.7024C33.832 37.0809 34.315 37.3642 34.8466 37.5287C35.3782 37.6933 35.9432 37.7344 36.4947 37.6487C37.0462 37.5629 37.5684 37.3528 38.018 37.0357C38.4676 36.7186 38.8316 36.3037 39.0798 35.8253C39.3281 35.347 39.4534 34.8189 39.4455 34.285C39.4375 33.7512 39.2965 33.2268 39.0341 32.7553C38.7717 32.2839 38.3955 31.8791 37.9367 31.5743C37.4779 31.2696 36.9496 31.0737 36.3958 31.003C36.8605 30.4642 37.1385 29.8006 37.1911 29.1042C37.2437 28.4078 37.0684 27.7129 36.6895 27.1159C37.3992 26.9498 38.0374 26.5769 38.5155 26.0489C38.9937 25.5209 39.2882 24.8639 39.3583 24.1689C39.8022 24.4918 40.3202 24.709 40.8694 24.8026C41.4186 24.8963 41.9832 24.8636 42.5166 24.7073C43.0499 24.551 43.5367 24.2756 43.9365 23.9039C44.3364 23.5322 44.6379 23.0748 44.816 22.5696C44.9942 22.0645 45.0439 21.526 44.961 20.9989C44.8781 20.4717 44.6651 19.971 44.3395 19.5381C44.0139 19.1052 43.5851 18.7527 43.0886 18.5096C42.5921 18.2665 42.0422 18.1399 41.4843 18.1403ZM37.9687 23.8512C37.9681 24.3856 37.7456 24.8979 37.3502 25.2758C36.9547 25.6537 36.4186 25.8662 35.8593 25.8668H35.2312C35.0921 25.8668 34.9562 25.9062 34.8406 25.98C34.725 26.0539 34.6348 26.1588 34.5816 26.2815C34.5284 26.4043 34.5144 26.5394 34.5415 26.6697C34.5687 26.8 34.6356 26.9197 34.7339 27.0137L35.1782 27.4382C35.5731 27.8165 35.795 28.3291 35.795 28.8635C35.795 29.3979 35.5731 29.9105 35.1782 30.2888L31.6979 33.6144C31.302 33.9918 30.7655 34.2037 30.2063 34.2037C29.647 34.2037 29.1106 33.9917 28.7148 33.6142L28.2705 33.1899C28.1722 33.0959 28.0469 33.032 27.9105 33.0061C27.7741 32.9802 27.6327 32.9935 27.5042 33.0443C27.3758 33.0952 27.266 33.1813 27.1887 33.2918C27.1115 33.4023 27.0702 33.5322 27.0702 33.6651V34.2653C27.0696 34.7997 26.8472 35.312 26.4517 35.6899C26.0563 36.0677 25.5201 36.2803 24.9609 36.2809H20.039C19.4797 36.2803 18.9436 36.0677 18.5481 35.6899C18.1527 35.312 17.9302 34.7997 17.9296 34.2653V33.6651C17.9296 33.5322 17.8884 33.4023 17.8111 33.2918C17.7339 33.1813 17.6241 33.0952 17.4956 33.0444C17.3671 32.9935 17.2258 32.9802 17.0894 33.0061C16.953 33.032 16.8277 33.0959 16.7294 33.1899L16.2851 33.6144C15.8892 33.9917 15.3528 34.2037 14.7935 34.2037C14.2343 34.2037 13.6979 33.9917 13.302 33.6144L9.82171 30.2888C9.4267 29.9105 9.20487 29.3979 9.20491 28.8635C9.20494 28.3291 9.42683 27.8165 9.82188 27.4382L10.266 27.0137C10.3643 26.9198 10.4312 26.8 10.4583 26.6697C10.4854 26.5394 10.4715 26.4043 10.4183 26.2815C10.365 26.1588 10.2749 26.0539 10.1593 25.98C10.0437 25.9062 9.90772 25.8668 9.76866 25.8668H9.14055C8.5813 25.8662 8.04513 25.6537 7.64968 25.2758C7.25422 24.8979 7.03179 24.3856 7.03118 23.8512V19.1481C7.03179 18.6137 7.25422 18.1013 7.64968 17.7234C8.04513 17.3456 8.5813 17.133 9.14055 17.1324H9.76866C9.90772 17.1324 10.0437 17.093 10.1593 17.0192C10.2749 16.9454 10.365 16.8405 10.4183 16.7177C10.4715 16.595 10.4854 16.4599 10.4583 16.3296C10.4312 16.1992 10.3643 16.0795 10.266 15.9855L9.82171 15.561C9.42672 15.1827 9.20489 14.6701 9.20489 14.1357C9.20489 13.6014 9.42672 13.0888 9.82171 12.7105L13.302 9.38489C13.6979 9.00747 14.2343 8.79553 14.7936 8.79557C15.3528 8.7956 15.8892 9.00759 16.2851 9.38505L16.7294 9.8094C16.8277 9.90334 16.953 9.9673 17.0894 9.9932C17.2258 10.0191 17.3671 10.0058 17.4956 9.95492C17.6241 9.90405 17.7339 9.81794 17.8111 9.70745C17.8884 9.59696 17.9296 9.46707 17.9296 9.3342V8.734C17.9302 8.1996 18.1527 7.68726 18.5481 7.30939C18.9436 6.93151 19.4797 6.71896 20.039 6.71838H24.9609C25.5201 6.71896 26.0563 6.93151 26.4517 7.30939C26.8472 7.68726 27.0696 8.1996 27.0702 8.734V9.3342C27.0702 9.46707 27.1115 9.59696 27.1887 9.70745C27.266 9.81793 27.3758 9.90405 27.5042 9.95491C27.6327 10.0058 27.7741 10.0191 27.9105 9.9932C28.0469 9.96729 28.1721 9.90333 28.2705 9.8094L28.7148 9.38488C29.1107 9.00752 29.6471 8.7956 30.2063 8.7956C30.7655 8.7956 31.3019 9.00752 31.6979 9.38488L35.1782 12.7105C35.5732 13.0888 35.795 13.6014 35.795 14.1358C35.7949 14.6702 35.573 15.1827 35.178 15.561L34.7339 15.9855C34.6356 16.0795 34.5686 16.1992 34.5415 16.3296C34.5144 16.4599 34.5284 16.595 34.5816 16.7177C34.6348 16.8405 34.725 16.9454 34.8406 17.0192C34.9562 17.093 35.0921 17.1324 35.2312 17.1324H35.8593C36.4186 17.133 36.9547 17.3456 37.3502 17.7234C37.7456 18.1013 37.9681 18.6137 37.9687 19.1481V23.8512Z" fill="black"/>
<path d="M22.5001 10.6895C20.2625 10.6895 18.0752 11.3235 16.2147 12.5114C14.3543 13.6993 12.9042 15.3876 12.0479 17.363C11.1917 19.3384 10.9676 21.512 11.4042 23.609C11.8407 25.706 12.9182 27.6323 14.5004 29.1441C16.0825 30.656 18.0984 31.6856 20.2929 32.1027C22.4875 32.5199 24.7622 32.3058 26.8295 31.4876C28.8967 30.6693 30.6636 29.2837 31.9067 27.506C33.1498 25.7282 33.8133 23.6381 33.8133 21.5C33.8106 18.6337 32.6179 15.8855 30.4968 13.8587C28.3757 11.8319 25.4997 10.6921 22.5001 10.6895ZM23.9063 27.2109C23.9058 27.389 23.8315 27.5595 23.6998 27.6854C23.568 27.8113 23.3895 27.8823 23.2032 27.8828H21.7969C21.6106 27.8823 21.4321 27.8113 21.3004 27.6854C21.1686 27.5595 21.0944 27.389 21.0938 27.2109V25.8672C21.0944 25.6891 21.1686 25.5185 21.3004 25.3927C21.4321 25.2668 21.6106 25.1958 21.7969 25.1953H23.2032C23.3895 25.1958 23.568 25.2668 23.6998 25.3927C23.8315 25.5185 23.9058 25.6891 23.9063 25.8672V27.2109ZM24.0504 21.893C24.036 22.0607 23.956 22.2171 23.8263 22.331C23.6967 22.4449 23.5269 22.5081 23.3508 22.5078H21.6493C21.4732 22.5081 21.3034 22.4449 21.1738 22.331C21.0441 22.2171 20.9641 22.0607 20.9497 21.893L20.3942 15.8462C20.3862 15.7536 20.3983 15.6604 20.4298 15.5725C20.4612 15.4846 20.5114 15.4039 20.5771 15.3354C20.6428 15.267 20.7227 15.2122 20.8116 15.1747C20.9005 15.1371 20.9966 15.1175 21.0938 15.1172H23.9063C24.0035 15.1175 24.0996 15.1371 24.1885 15.1747C24.2775 15.2122 24.3573 15.267 24.423 15.3354C24.4887 15.4039 24.5389 15.4846 24.5704 15.5725C24.6018 15.6604 24.6139 15.7536 24.6059 15.8462L24.0504 21.893Z" fill="black"/>
</g>
<defs>
<clipPath id="clip0_61_66">
<rect width="45" height="43" fill="white"/>
</clipPath>
</defs>
</svg>
