<svg width="36" height="32" viewBox="0 0 36 32" fill="none" xmlns="http://www.w3.org/2000/svg">
<g clip-path="url(#clip0_61_94)">
<path d="M32.4752 24.8158H3.52485C2.59029 24.8149 1.69427 24.471 1.03344 23.8597C0.3726 23.2483 0.000933163 22.4193 0 21.5547L0 3.26111C0.00111939 2.39653 0.372846 1.56765 1.03364 0.956302C1.69444 0.344949 2.59035 0.00103564 3.52485 0L32.4752 0C33.4097 0.00103564 34.3056 0.344949 34.9664 0.956302C35.6272 1.56765 35.9989 2.39653 36 3.26111V21.5547C35.9991 22.4193 35.6274 23.2483 34.9666 23.8597C34.3057 24.471 33.4097 24.8149 32.4752 24.8158ZM3.52485 1.30445C2.96394 1.30445 2.42601 1.51059 2.02938 1.87754C1.63276 2.24449 1.40994 2.74217 1.40994 3.26111V21.5547C1.40994 22.0736 1.63276 22.5713 2.02938 22.9382C2.42601 23.3052 2.96394 23.5113 3.52485 23.5113H32.4752C33.0361 23.5113 33.574 23.3052 33.9706 22.9382C34.3672 22.5713 34.5901 22.0736 34.5901 21.5547V3.26111C34.5901 2.74217 34.3672 2.24449 33.9706 1.87754C33.574 1.51059 33.0361 1.30445 32.4752 1.30445H3.52485ZM26.4709 32H9.52908C9.34211 32 9.1628 31.9313 9.03059 31.809C8.89838 31.6867 8.82411 31.5208 8.82411 31.3478C8.8243 30.3096 9.26986 29.3139 10.0629 28.5794C10.856 27.845 11.9318 27.4317 13.0539 27.4305H22.9461C24.0675 27.4316 25.1428 27.8442 25.9358 28.5779C26.7288 29.3115 27.1748 30.3063 27.1759 31.3439C27.1759 31.5172 27.1018 31.6835 26.9697 31.8064C26.8376 31.9294 26.6583 31.999 26.4709 32ZM10.3222 30.6956H25.6778C25.5216 30.1349 25.1686 29.6382 24.6741 29.2833C24.1797 28.9285 23.5718 28.7356 22.9461 28.735H13.0539C12.4282 28.7356 11.8203 28.9285 11.3259 29.2833C10.8314 29.6382 10.4784 30.1349 10.3222 30.6956Z" fill="#1F140F"/>
<path d="M22.5887 28.735H13.4114C13.2911 28.735 13.1729 28.7065 13.0679 28.6524C12.9629 28.5982 12.8747 28.52 12.8115 28.4254C12.7484 28.3308 12.7124 28.2228 12.7071 28.1116C12.7018 28.0005 12.7273 27.89 12.7811 27.7906L14.896 23.872C14.9545 23.7637 15.0445 23.6726 15.1558 23.6089C15.2671 23.5452 15.3954 23.5114 15.5263 23.5113H20.4681C20.599 23.5114 20.7273 23.5452 20.8386 23.6089C20.9499 23.6726 21.0398 23.7637 21.0983 23.872L23.2133 27.7906C23.2671 27.89 23.2926 28.0005 23.2873 28.1116C23.2819 28.2228 23.246 28.3308 23.1828 28.4254C23.1197 28.52 23.0314 28.5982 22.9264 28.6524C22.8214 28.7065 22.7032 28.735 22.583 28.735H22.5887ZM14.552 27.4305H21.448L20.0381 24.8158H15.9648L14.552 27.4305ZM35.295 20.2444H0.70497C0.518 20.2444 0.338688 20.1756 0.206481 20.0533C0.0742734 19.931 0 19.7651 0 19.5921C0 19.4192 0.0742734 19.2533 0.206481 19.1309C0.338688 19.0086 0.518 18.9399 0.70497 18.9399H35.295C35.482 18.9399 35.6613 19.0086 35.7935 19.1309C35.9257 19.2533 36 19.4192 36 19.5921C36 19.7651 35.9257 19.931 35.7935 20.0533C35.6613 20.1756 35.482 20.2444 35.295 20.2444ZM25.0596 17.6322C23.454 17.6323 21.8844 17.192 20.5493 16.3668C19.2143 15.5416 18.1737 14.3686 17.5592 12.9962C16.9447 11.6239 16.7839 10.1137 17.0971 8.65682C17.4103 7.1999 18.1834 5.86162 19.3188 4.81124C20.4541 3.76086 21.9006 3.04556 23.4753 2.75579C25.0501 2.46602 26.6824 2.61481 28.1657 3.18333C29.6491 3.75185 30.9169 4.71457 31.8088 5.94974C32.7007 7.18491 33.1767 8.63705 33.1766 10.1225C33.174 12.1135 32.318 14.0222 30.7963 15.43C29.2746 16.8378 27.2115 17.6298 25.0596 17.6322ZM25.0596 3.91661C23.7329 3.91648 22.4359 4.28034 21.3327 4.96218C20.2295 5.64401 19.3697 6.6132 18.8619 7.74716C18.3541 8.88113 18.2211 10.129 18.4799 11.3328C18.7386 12.5367 19.3774 13.6425 20.3155 14.5105C21.2536 15.3785 22.4488 15.9696 23.75 16.2091C25.0512 16.4486 26.3999 16.3258 27.6257 15.8561C28.8514 15.3864 29.899 14.591 30.6361 13.5704C31.3732 12.5498 31.7667 11.3499 31.7667 10.1225C31.7648 8.47725 31.0576 6.89985 29.8002 5.73641C28.5428 4.57298 26.8379 3.91851 25.0596 3.91661Z" fill="#1F140F"/>
<path d="M25.0595 10.7747C24.8725 10.7747 24.6932 10.706 24.561 10.5837C24.4288 10.4613 24.3545 10.2954 24.3545 10.1225V3.26434C24.3545 3.09136 24.4288 2.92547 24.561 2.80315C24.6932 2.68084 24.8725 2.61212 25.0595 2.61212C25.2464 2.61212 25.4257 2.68084 25.558 2.80315C25.6902 2.92547 25.7644 3.09136 25.7644 3.26434V10.1225C25.7644 10.2954 25.6902 10.4613 25.558 10.5837C25.4257 10.706 25.2464 10.7747 25.0595 10.7747Z" fill="#1F140F"/>
<path d="M32.4715 10.7747H25.0595C24.8725 10.7747 24.6932 10.706 24.561 10.5837C24.4288 10.4614 24.3545 10.2955 24.3545 10.1225C24.3545 9.94952 24.4288 9.78362 24.561 9.66131C24.6932 9.53899 24.8725 9.47028 25.0595 9.47028H32.4715C32.6585 9.47028 32.8378 9.53899 32.97 9.66131C33.1022 9.78362 33.1765 9.94952 33.1765 10.1225C33.1765 10.2955 33.1022 10.4614 32.97 10.5837C32.8378 10.706 32.6585 10.7747 32.4715 10.7747Z" fill="#1F140F"/>
<path d="M19.8175 15.624C19.6777 15.6246 19.5409 15.5867 19.4244 15.5152C19.3079 15.4437 19.217 15.3418 19.1633 15.2224C19.1096 15.103 19.0954 14.9715 19.1227 14.8447C19.1499 14.7178 19.2173 14.6013 19.3163 14.51L24.5577 9.66069C24.6232 9.60009 24.701 9.55202 24.7866 9.51923C24.8721 9.48643 24.9639 9.46955 25.0565 9.46955C25.1491 9.46955 25.2408 9.48643 25.3264 9.51923C25.412 9.55202 25.4897 9.60009 25.5552 9.66069C25.6207 9.72129 25.6727 9.79323 25.7082 9.87241C25.7436 9.95158 25.7618 10.0364 25.7618 10.1221C25.7618 10.2078 25.7436 10.2927 25.7082 10.3719C25.6727 10.451 25.6207 10.523 25.5552 10.5836L20.3138 15.4329C20.1821 15.5547 20.0037 15.6234 19.8175 15.624ZM14.8235 7.18225H3.52846C3.34149 7.18225 3.16217 7.11353 3.02997 6.99121C2.89776 6.8689 2.82349 6.703 2.82349 6.53002V3.26434C2.82349 3.09136 2.89776 2.92547 3.02997 2.80315C3.16217 2.68084 3.34149 2.61212 3.52846 2.61212H14.8235C15.0105 2.61212 15.1898 2.68084 15.322 2.80315C15.4542 2.92547 15.5285 3.09136 15.5285 3.26434V6.53002C15.5285 6.703 15.4542 6.8689 15.322 6.99121C15.1898 7.11353 15.0105 7.18225 14.8235 7.18225ZM4.23343 5.8778H14.1185V3.91657H4.23343V5.8778ZM14.8235 9.7944H3.52846C3.34149 9.7944 3.16217 9.72568 3.02997 9.60337C2.89776 9.48105 2.82349 9.31516 2.82349 9.14218C2.82349 8.96919 2.89776 8.8033 3.02997 8.68098C3.16217 8.55867 3.34149 8.48995 3.52846 8.48995H14.8235C15.0105 8.48995 15.1898 8.55867 15.322 8.68098C15.4542 8.8033 15.5285 8.96919 15.5285 9.14218C15.5285 9.31516 15.4542 9.48105 15.322 9.60337C15.1898 9.72568 15.0105 9.7944 14.8235 9.7944ZM14.8235 12.4072H3.52846C3.34149 12.4072 3.16217 12.3385 3.02997 12.2162C2.89776 12.0939 2.82349 11.928 2.82349 11.755C2.82349 11.582 2.89776 11.4161 3.02997 11.2938C3.16217 11.1715 3.34149 11.1028 3.52846 11.1028H14.8235C15.0105 11.1028 15.1898 11.1715 15.322 11.2938C15.4542 11.4161 15.5285 11.582 15.5285 11.755C15.5285 11.928 15.4542 12.0939 15.322 12.2162C15.1898 12.3385 15.0105 12.4072 14.8235 12.4072ZM14.8235 15.0194H3.52846C3.34149 15.0194 3.16217 14.9506 3.02997 14.8283C2.89776 14.706 2.82349 14.5401 2.82349 14.3671C2.82349 14.1942 2.89776 14.0283 3.02997 13.9059C3.16217 13.7836 3.34149 13.7149 3.52846 13.7149H14.8235C15.0105 13.7149 15.1898 13.7836 15.322 13.9059C15.4542 14.0283 15.5285 14.1942 15.5285 14.3671C15.5285 14.5401 15.4542 14.706 15.322 14.8283C15.1898 14.9506 15.0105 15.0194 14.8235 15.0194ZM14.8235 17.6322H3.52846C3.34149 17.6322 3.16217 17.5634 3.02997 17.4411C2.89776 17.3188 2.82349 17.1529 2.82349 16.9799C2.82349 16.807 2.89776 16.6411 3.02997 16.5187C3.16217 16.3964 3.34149 16.3277 3.52846 16.3277H14.8235C15.0105 16.3277 15.1898 16.3964 15.322 16.5187C15.4542 16.6411 15.5285 16.807 15.5285 16.9799C15.5285 17.1529 15.4542 17.3188 15.322 17.4411C15.1898 17.5634 15.0105 17.6322 14.8235 17.6322Z" fill="#1F140F"/>
</g>
<defs>
<clipPath id="clip0_61_94">
<rect width="36" height="32" fill="white"/>
</clipPath>
</defs>
</svg>
