<?xml version="1.0" encoding="UTF-8"?>
<!DOCTYPE svg PUBLIC "-//W3C//DTD SVG 1.1//EN" "http://www.w3.org/Graphics/SVG/1.1/DTD/svg11.dtd">
<svg xmlns="http://www.w3.org/2000/svg" version="1.1" width="287px" height="280px" style="shape-rendering:geometricPrecision; text-rendering:geometricPrecision; image-rendering:optimizeQuality; fill-rule:evenodd; clip-rule:evenodd" xmlns:xlink="http://www.w3.org/1999/xlink">
<g><path style="opacity:0.094" fill="#d4c0b0" d="M 138.5,85.5 C 136.467,86.8984 135.467,88.8984 135.5,91.5C 135.373,94.8274 135.873,98.1607 137,101.5C 137.183,98.6353 137.683,95.9686 138.5,93.5C 138.5,100.167 138.5,106.833 138.5,113.5C 137.127,113.657 135.793,113.49 134.5,113C 131.546,111.354 128.88,109.354 126.5,107C 122.316,105.163 118.15,103.329 114,101.5C 112.092,104.332 111.259,103.999 111.5,100.5C 109.473,100.662 107.473,100.495 105.5,100C 103.113,98.315 100.613,96.815 98,95.5C 95.4464,102.178 94.6131,102.011 95.5,95C 94.1564,93.4466 92.8231,92.9466 91.5,93.5C 90.609,92.8902 89.609,92.5569 88.5,92.5C 88.3893,91.8826 88.056,91.3826 87.5,91C 83.6269,91.1507 80.2936,89.9841 77.5,87.5C 77.2074,90.8368 75.874,91.0035 73.5,88C 73.9574,87.586 74.2907,87.086 74.5,86.5C 73.3717,85.7379 72.2051,85.0712 71,84.5C 70.5814,85.6721 69.9147,86.6721 69,87.5C 68.5348,86.0692 67.7014,84.9025 66.5,84C 65.2559,83.5439 64.4226,84.0439 64,85.5C 63.0853,84.6721 62.4186,83.6721 62,82.5C 60.7813,86.1776 59.2813,86.1776 57.5,82.5C 57.6082,81.5581 57.9415,80.7247 58.5,80C 57.5838,79.6258 56.7504,79.1258 56,78.5C 55.3109,79.3567 54.4776,80.0233 53.5,80.5C 50.3832,76.1181 46.0499,73.9514 40.5,74C 38.8998,72.185 36.8998,71.0183 34.5,70.5C 33.2888,71.2739 33.2888,72.1072 34.5,73C 33.4366,74.1882 32.1033,74.6882 30.5,74.5C 30.3253,72.3792 30.6586,70.3792 31.5,68.5C 29.1602,69.086 26.9935,70.086 25,71.5C 23.7645,65.3674 21.5978,65.0341 18.5,70.5C 19,70.8333 19.5,71.1667 20,71.5C 26.0137,73.6081 31.847,75.7747 37.5,78C 36.1667,78.6667 36.1667,79.3333 37.5,80C 44.6219,82.2641 51.6219,84.9308 58.5,88C 67.5815,92.7373 76.9148,96.7373 86.5,100C 91.8304,103.572 96.8304,106.405 101.5,108.5C 102.167,109.833 102.833,109.833 103.5,108.5C 104.315,109.429 105.148,110.429 106,111.5C 107.049,110.483 108.216,110.316 109.5,111C 111,112.5 112.5,114 114,115.5C 115.613,114.378 116.78,114.878 117.5,117C 119.167,117.333 120.833,117.667 122.5,118C 123.551,119.385 124.884,120.385 126.5,121C 130.543,121.113 134.209,122.279 137.5,124.5C 134.175,125.504 133.841,126.838 136.5,128.5C 135.313,134.552 135.313,140.552 136.5,146.5C 137.544,158.597 138.211,170.93 138.5,183.5C 137.167,183.5 135.833,183.5 134.5,183.5C 132.143,183.663 129.81,183.497 127.5,183C 128.328,182.085 129.328,181.419 130.5,181C 129.675,179.312 128.675,179.145 127.5,180.5C 126.932,178.565 125.765,177.232 124,176.5C 123.5,176.833 123,177.167 122.5,177.5C 123.59,178.609 123.59,179.609 122.5,180.5C 121.719,179.271 121.219,177.938 121,176.5C 117.273,173.914 113.773,171.247 110.5,168.5C 118.086,171.463 125.753,174.13 133.5,176.5C 133.667,163.496 133.5,150.496 133,137.5C 132.797,133.579 132.297,129.745 131.5,126C 91.3714,107.267 51.038,89.1003 10.5,71.5C 10.1729,73.4878 9.83956,75.4878 9.5,77.5C 14.0096,120.46 18.0096,163.46 21.5,206.5C 21.5654,206.938 21.3988,207.272 21,207.5C 20.2917,206.619 19.4584,205.953 18.5,205.5C 19.161,203.444 18.8277,201.444 17.5,199.5C 16.962,197.883 16.6287,196.216 16.5,194.5C 16.6775,193.305 17.0109,192.138 17.5,191C 17.1639,189.97 16.4972,189.47 15.5,189.5C 14.4625,188.07 13.7959,186.403 13.5,184.5C 13.8333,183.167 14.1667,181.833 14.5,180.5C 16.9327,179.452 16.9327,178.786 14.5,178.5C 14.5,178.167 14.5,177.833 14.5,177.5C 13.8919,175.316 14.5586,173.316 16.5,171.5C 14.7087,166.667 13.7087,161.667 13.5,156.5C 13.5172,154.435 13.8505,152.435 14.5,150.5C 14.1006,146.989 13.4339,143.656 12.5,140.5C 12.3573,138.738 12.6906,137.071 13.5,135.5C 11.8789,132.348 10.8789,129.015 10.5,125.5C 10.6716,124.508 10.3382,123.842 9.5,123.5C 9.16667,123.5 8.83333,123.5 8.5,123.5C 9.38973,121.218 9.5564,118.885 9,116.5C 8.58309,117.756 7.74975,118.423 6.5,118.5C 6.66972,114.318 6.66972,110.318 6.5,106.5C 7.2418,104.65 8.2418,103.984 9.5,104.5C 8.82006,103.14 8.15339,101.807 7.5,100.5C 8.75635,98.2743 8.75635,95.941 7.5,93.5C 7.66615,87.4908 7.49949,81.4908 7,75.5C 6.58605,75.9574 6.08605,76.2907 5.5,76.5C 4.53443,74.604 4.2011,72.604 4.5,70.5C 4.19463,65.9188 6.19463,63.0854 10.5,62C 9.17723,61.1841 8.51056,60.0174 8.5,58.5C 5.896,55.0098 6.896,52.6765 11.5,51.5C 13.2837,52.7199 14.9504,52.7199 16.5,51.5C 20.4696,51.0159 24.1363,49.6825 27.5,47.5C 27.56,48.0431 27.8933,48.3764 28.5,48.5C 30.583,47.0413 32.7497,45.7079 35,44.5C 41.7138,44.1609 48.2138,42.3276 54.5,39C 55.1905,37.9326 55.6905,36.7659 56,35.5C 56.3076,36.3081 56.8076,36.9747 57.5,37.5C 59.4159,36.7517 61.4159,36.7517 63.5,37.5C 63.2011,35.396 63.5344,33.396 64.5,31.5C 66.5,32.5 68.5,33.5 70.5,34.5C 71.6039,33.3687 71.2705,32.5354 69.5,32C 71.638,28.8963 73.9713,28.7297 76.5,31.5C 80.9663,31.0056 85.2996,30.0056 89.5,28.5C 90.316,26.7127 91.316,25.0461 92.5,23.5C 93.3857,24.325 93.719,25.325 93.5,26.5C 95.7505,26.8186 97.7505,26.3186 99.5,25C 95.5,24.3333 95.5,23.6667 99.5,23C 102.236,22.5783 104.902,22.5783 107.5,23C 106.07,21.1197 106.404,19.6197 108.5,18.5C 110.429,19.3802 112.263,20.3802 114,21.5C 115.059,21.3699 115.892,20.8699 116.5,20C 115.292,17.355 116.292,16.1884 119.5,16.5C 121.596,18.1911 123.596,18.3578 125.5,17C 124.62,15.6439 124.286,14.1439 124.5,12.5C 126.792,12.2436 128.959,12.5769 131,13.5C 133.84,10.6293 136.174,10.9626 138,14.5C 139.011,22.0164 138.344,29.3497 136,36.5C 135.586,36.0426 135.086,35.7093 134.5,35.5C 130.39,37.3051 126.223,38.9717 122,40.5C 121.127,40.2645 120.293,39.9312 119.5,39.5C 104.472,45.0174 90.6388,50.6841 78,56.5C 75.4721,54.492 73.1388,54.492 71,56.5C 71.6059,59.4603 73.4392,61.627 76.5,63C 81,64.5 85.5,66 90,67.5C 91.7659,66.7665 93.5992,66.4332 95.5,66.5C 95.33,67.8221 95.6634,68.9887 96.5,70C 98.8991,70.711 101.232,70.5443 103.5,69.5C 108.567,72.5372 113.9,75.3705 119.5,78C 123.633,79.5928 127.8,79.7595 132,78.5C 133.735,79.6819 134.735,81.3485 135,83.5C 137.351,80.9568 138.517,81.6235 138.5,85.5 Z M 12.5,63.5 C 13.6491,63.7911 14.3158,64.6244 14.5,66C 14.607,68.6984 13.9403,69.0318 12.5,67C 13.1712,66.0138 13.1712,64.8471 12.5,63.5 Z"/></g>
<g><path style="opacity:0.094" fill="#d4bfaf" d="M 253.5,48.5 C 256.864,50.6825 260.53,52.0159 264.5,52.5C 266.338,53.6783 268.005,53.345 269.5,51.5C 270.498,51.4128 271.665,51.0795 273,50.5C 274.193,55.1519 273.36,59.3186 270.5,63C 271.448,63.4828 272.448,63.6495 273.5,63.5C 272.998,82.1976 272.998,100.864 273.5,119.5C 272.778,119.082 272.278,118.416 272,117.5C 271.444,119.885 271.61,122.218 272.5,124.5C 272.167,124.5 271.833,124.5 271.5,124.5C 270.662,124.842 270.328,125.508 270.5,126.5C 270.121,130.015 269.121,133.348 267.5,136.5C 268.309,138.071 268.643,139.738 268.5,141.5C 267.566,144.656 266.899,147.989 266.5,151.5C 267.15,153.435 267.483,155.435 267.5,157.5C 267.291,162.667 266.291,167.667 264.5,172.5C 266.441,174.316 267.108,176.316 266.5,178.5C 266.5,178.833 266.5,179.167 266.5,179.5C 264.067,179.786 264.067,180.452 266.5,181.5C 266.833,182.833 267.167,184.167 267.5,185.5C 267.204,187.403 266.537,189.07 265.5,190.5C 264.503,190.47 263.836,190.97 263.5,192C 263.989,193.138 264.322,194.305 264.5,195.5C 264.054,199.923 263.721,204.257 263.5,208.5C 262.559,205.875 261.393,205.875 260,208.5C 259.601,208.272 259.435,207.938 259.5,207.5C 262.99,164.46 266.99,121.46 271.5,78.5C 271.16,76.4878 270.827,74.4878 270.5,72.5C 229.962,90.1003 189.629,108.267 149.5,127C 148.703,130.745 148.203,134.579 148,138.5C 147.5,151.496 147.333,164.496 147.5,177.5C 155.262,175.119 162.929,172.453 170.5,169.5C 168.49,172.027 165.823,173.861 162.5,175C 160.372,176.667 159.039,178.834 158.5,181.5C 157.41,180.609 157.41,179.609 158.5,178.5C 158,178.167 157.5,177.833 157,177.5C 155.235,178.232 154.068,179.565 153.5,181.5C 152.325,180.145 151.325,180.312 150.5,182C 151.672,182.419 152.672,183.085 153.5,184C 151.19,184.497 148.857,184.663 146.5,184.5C 145.167,184.5 143.833,184.5 142.5,184.5C 142.789,171.93 143.456,159.597 144.5,147.5C 145.687,141.552 145.687,135.552 144.5,129.5C 147.159,127.838 146.825,126.504 143.5,125.5C 146.791,123.279 150.457,122.113 154.5,122C 156.116,121.385 157.449,120.385 158.5,119C 161.557,119.107 163.891,117.94 165.5,115.5C 166.086,115.709 166.586,116.043 167,116.5C 168.5,115 170,113.5 171.5,112C 172.784,111.316 173.951,111.483 175,112.5C 175.852,111.429 176.685,110.429 177.5,109.5C 178.167,110.833 178.833,110.833 179.5,109.5C 184.17,107.405 189.17,104.572 194.5,101C 206.743,96.7199 218.743,91.5532 230.5,85.5C 235.065,84.5449 239.398,83.0449 243.5,81C 244.833,80.3333 244.833,79.6667 243.5,79C 249.153,76.7747 254.986,74.6081 261,72.5C 261.5,72.1667 262,71.8333 262.5,71.5C 259.402,66.0341 257.236,66.3674 256,72.5C 254.007,71.086 251.84,70.086 249.5,69.5C 250.341,71.3792 250.675,73.3792 250.5,75.5C 249.448,75.6495 248.448,75.4828 247.5,75C 247.273,73.8647 246.94,72.698 246.5,71.5C 244.1,72.0183 242.1,73.185 240.5,75C 234.95,74.9514 230.617,77.1181 227.5,81.5C 226.522,81.0233 225.689,80.3567 225,79.5C 224.25,80.1258 223.416,80.6258 222.5,81C 223.98,83.5497 223.313,85.3831 220.5,86.5C 219.749,85.624 219.249,84.624 219,83.5C 218.581,84.6721 217.915,85.6721 217,86.5C 216.577,85.0439 215.744,84.5439 214.5,85C 213.299,85.9025 212.465,87.0692 212,88.5C 211.085,87.6721 210.419,86.6721 210,85.5C 208.795,86.0712 207.628,86.7379 206.5,87.5C 207.476,89.1233 206.976,90.4567 205,91.5C 203.796,90.5294 203.296,89.5294 203.5,88.5C 200.706,90.9841 197.373,92.1507 193.5,92C 192.944,92.3826 192.611,92.8826 192.5,93.5C 191.391,93.5569 190.391,93.8902 189.5,94.5C 188.177,93.9466 186.844,94.4466 185.5,96C 186.387,103.011 185.554,103.178 183,96.5C 180.387,97.815 177.887,99.315 175.5,101C 173.527,101.495 171.527,101.662 169.5,101.5C 169.741,104.999 168.908,105.332 167,102.5C 162.85,104.329 158.684,106.163 154.5,108C 152.12,110.354 149.454,112.354 146.5,114C 145.207,114.49 143.873,114.657 142.5,114.5C 142.5,107.833 142.5,101.167 142.5,94.5C 143.317,96.9686 143.817,99.6353 144,102.5C 144.781,101.271 145.281,99.938 145.5,98.5C 145.278,95.6446 145.111,92.6446 145,89.5C 144.623,88.0577 143.79,87.0577 142.5,86.5C 142.483,82.6235 143.649,81.9568 146,84.5C 146.81,79.5175 149.477,78.1842 154,80.5C 156.547,80.2382 159.047,79.7382 161.5,79C 167.1,76.3705 172.433,73.5372 177.5,70.5C 179.768,71.5443 182.101,71.711 184.5,71C 185.337,69.9887 185.67,68.8221 185.5,67.5C 187.401,67.4332 189.234,67.7665 191,68.5C 195.5,67 200,65.5 204.5,64C 207.561,62.627 209.394,60.4603 210,57.5C 207.861,55.492 205.528,55.492 203,57.5C 190.361,51.6841 176.528,46.0174 161.5,40.5C 160.707,40.9312 159.873,41.2645 159,41.5C 154.777,39.9717 150.61,38.3051 146.5,36.5C 145.914,36.7093 145.414,37.0426 145,37.5C 142.656,30.3497 141.989,23.0164 143,15.5C 144.826,11.9626 147.16,11.6293 150,14.5C 152.041,13.5769 154.208,13.2436 156.5,13.5C 156.714,15.1439 156.38,16.6439 155.5,18C 157.404,19.3578 159.404,19.1911 161.5,17.5C 164.708,17.1884 165.708,18.355 164.5,21C 165.108,21.8699 165.941,22.3699 167,22.5C 168.737,21.3802 170.571,20.3802 172.5,19.5C 174.596,20.6197 174.93,22.1197 173.5,24C 177.191,23.1088 180.858,23.4421 184.5,25C 183.5,25.3333 182.5,25.6667 181.5,26C 183.25,27.3186 185.25,27.8186 187.5,27.5C 187.281,26.325 187.614,25.325 188.5,24.5C 189.544,27.5692 191.544,29.7358 194.5,31C 197.89,31.2463 201.223,31.7463 204.5,32.5C 207.029,29.7297 209.362,29.8963 211.5,33C 209.729,33.5354 209.396,34.3687 210.5,35.5C 212.5,34.5 214.5,33.5 216.5,32.5C 217.466,34.396 217.799,36.396 217.5,38.5C 219.584,37.7517 221.584,37.7517 223.5,38.5C 224.883,35.9244 225.717,36.2577 226,39.5C 232.355,43.18 239.022,45.18 246,45.5C 248.25,46.7079 250.417,48.0413 252.5,49.5C 253.107,49.3764 253.44,49.0431 253.5,48.5 Z M 266.5,64.5 C 267.376,64.3691 268.043,64.7025 268.5,65.5C 268.467,66.989 267.967,68.3224 267,69.5C 266.506,67.8659 266.34,66.1992 266.5,64.5 Z"/></g>
<g><path style="opacity:0.988" fill="#090907" d="M 31.5,68.5 C 25.5265,64.9423 19.1931,61.9423 12.5,59.5C 11.2888,58.7261 11.2888,57.8928 12.5,57C 52.7466,43.8621 93.0799,31.0288 133.5,18.5C 134.833,23.5 134.833,28.5 133.5,33.5C 108.549,41.0391 83.8824,49.3725 59.5,58.5C 83.2013,67.623 107.201,75.9563 131.5,83.5C 132.975,91.2705 132.642,98.9372 130.5,106.5C 97.946,92.6491 64.946,79.9824 31.5,68.5 Z"/></g>
<g><path style="opacity:0.988" fill="#090908" d="M 249.5,69.5 C 216.054,80.9824 183.054,93.6491 150.5,107.5C 148.358,99.9372 148.025,92.2705 149.5,84.5C 173.799,76.9563 197.799,68.623 221.5,59.5C 197.129,50.3761 172.462,42.0427 147.5,34.5C 146.167,29.5 146.167,24.5 147.5,19.5C 187.92,32.0288 228.253,44.8621 268.5,58C 269.711,58.8928 269.711,59.7261 268.5,60.5C 261.807,62.9423 255.474,65.9423 249.5,69.5 Z"/></g>
<g><path style="opacity:0.004" fill="#fffece" d="M 80.5,28.5 C 81.2506,27.4265 82.2506,27.2599 83.5,28C 82.552,28.4828 81.552,28.6495 80.5,28.5 Z"/></g>
<g><path style="opacity:0.004" fill="#fffece" d="M 197.5,29.5 C 198.251,28.4265 199.251,28.2599 200.5,29C 199.552,29.4828 198.552,29.6495 197.5,29.5 Z"/></g>
<g><path style="opacity:0.004" fill="#fefffe" d="M 125.5,41.5 C 125.897,40.475 126.563,40.3083 127.5,41C 126.906,41.4643 126.239,41.631 125.5,41.5 Z"/></g>
<g><path style="opacity:0.004" fill="#fefffe" d="M 153.5,42.5 C 153.897,41.475 154.563,41.3083 155.5,42C 154.906,42.4643 154.239,42.631 153.5,42.5 Z"/></g>
<g><path style="opacity:0.004" fill="#fefffe" d="M 27.5,47.5 C 24.1363,49.6825 20.4696,51.0159 16.5,51.5C 15.5,51.1667 14.8333,50.5 14.5,49.5C 18.2723,48.0755 22.1057,46.7422 26,45.5C 27.0299,45.8361 27.5299,46.5028 27.5,47.5 Z"/></g>
<g><path style="opacity:0.004" fill="#fefffe" d="M 266.5,50.5 C 266.167,51.5 265.5,52.1667 264.5,52.5C 260.53,52.0159 256.864,50.6825 253.5,48.5C 253.47,47.5028 253.97,46.8361 255,46.5C 258.894,47.7422 262.728,49.0755 266.5,50.5 Z"/></g>
<g><path style="opacity:0.004" fill="#ffebdb" d="M 11.5,50.5 C 11.5,50.8333 11.5,51.1667 11.5,51.5C 6.896,52.6765 5.896,55.0098 8.5,58.5C 4.20154,58.653 2.20154,56.653 2.5,52.5C 4.99278,52.6709 6.82611,51.6709 8,49.5C 9.33488,50.0795 10.5015,50.4128 11.5,50.5 Z"/></g>
<g><path style="opacity:0.008" fill="#fffe79" d="M 14.5,49.5 C 14.8333,50.5 15.5,51.1667 16.5,51.5C 14.9504,52.7199 13.2837,52.7199 11.5,51.5C 11.5,51.1667 11.5,50.8333 11.5,50.5C 12.609,50.4431 13.609,50.1098 14.5,49.5 Z"/></g>
<g><path style="opacity:0.008" fill="#fffe73" d="M 266.5,50.5 C 267.391,51.1098 268.391,51.4431 269.5,51.5C 268.005,53.345 266.338,53.6783 264.5,52.5C 265.5,52.1667 266.167,51.5 266.5,50.5 Z"/></g>
<g><path style="opacity:0.004" fill="#fefffe" d="M 73.5,57.5 C 74.8333,58.1667 74.8333,58.1667 73.5,57.5 Z"/></g>
<g><path style="opacity:0.004" fill="#fefffe" d="M 82.5,57.5 C 83.8333,58.1667 83.8333,58.1667 82.5,57.5 Z"/></g>
<g><path style="opacity:0.004" fill="#fefffe" d="M 197.5,58.5 C 198.833,59.1667 198.833,59.1667 197.5,58.5 Z"/></g>
<g><path style="opacity:0.004" fill="#fefffe" d="M 206.5,58.5 C 207.833,59.1667 207.833,59.1667 206.5,58.5 Z"/></g>
<g><path style="opacity:0.004" fill="#fefffe" d="M 107.5,66.5 C 108.525,66.8966 108.692,67.5632 108,68.5C 107.536,67.9056 107.369,67.2389 107.5,66.5 Z"/></g>
<g><path style="opacity:0.004" fill="#fefffe" d="M 172.5,67.5 C 173.525,67.8966 173.692,68.5632 173,69.5C 172.536,68.9056 172.369,68.2389 172.5,67.5 Z"/></g>
<g><path style="opacity:0.004" fill="#fffdf8" d="M 4.5,70.5 C 4.2011,72.604 4.53443,74.604 5.5,76.5C 6.08605,76.2907 6.58605,75.9574 7,75.5C 7.49949,81.4908 7.66615,87.4908 7.5,93.5C 6.19004,95.4346 4.8567,97.4346 3.5,99.5C 0.681093,97.8071 0.34776,95.9738 2.5,94C 1.83333,93.3333 1.16667,92.6667 0.5,92C 1.76698,90.2041 1.76698,88.3707 0.5,86.5C 4.38841,81.8513 4.38841,76.6846 0.5,71C 1.79323,70.51 3.12656,70.3433 4.5,70.5 Z"/></g>
<g><path style="opacity:0.994" fill="#050403" d="M 110.5,168.5 C 107.672,167.345 105.005,166.011 102.5,164.5C 86.4729,156.069 70.3062,147.735 54,139.5C 53.3333,152.5 53.3333,165.5 54,178.5C 54.1816,181.226 54.6816,183.893 55.5,186.5C 81.9919,200.245 108.325,214.245 134.5,228.5C 136.469,243.102 136.969,257.768 136,272.5C 135.617,271.944 135.117,271.611 134.5,271.5C 97.3583,249.09 59.6916,227.424 21.5,206.5C 18.0096,163.46 14.0096,120.46 9.5,77.5C 9.83956,75.4878 10.1729,73.4878 10.5,71.5C 51.038,89.1003 91.3714,107.267 131.5,126C 132.297,129.745 132.797,133.579 133,137.5C 133.5,150.496 133.667,163.496 133.5,176.5C 125.753,174.13 118.086,171.463 110.5,168.5 Z"/></g>
<g><path style="opacity:0.004" fill="#daffcd" d="M 121.5,71.5 C 124.569,71.963 125.069,73.2963 123,75.5C 121.812,74.4366 121.312,73.1033 121.5,71.5 Z"/></g>
<g><path style="opacity:0.004" fill="#daffcd" d="M 157.5,72.5 C 159.97,73.3603 160.137,74.6936 158,76.5C 156.232,75.3181 156.065,73.9848 157.5,72.5 Z"/></g>
<g><path style="opacity:0.994" fill="#050403" d="M 259.5,207.5 C 221.308,228.424 183.642,250.09 146.5,272.5C 145.171,267.376 144.505,261.876 144.5,256C 144.37,247.097 145.037,238.263 146.5,229.5C 172.675,215.245 199.008,201.245 225.5,187.5C 226.318,184.893 226.818,182.226 227,179.5C 227.667,166.5 227.667,153.5 227,140.5C 210.694,148.735 194.527,157.069 178.5,165.5C 175.995,167.011 173.328,168.345 170.5,169.5C 162.929,172.453 155.262,175.119 147.5,177.5C 147.333,164.496 147.5,151.496 148,138.5C 148.203,134.579 148.703,130.745 149.5,127C 189.629,108.267 229.962,90.1003 270.5,72.5C 270.827,74.4878 271.16,76.4878 271.5,78.5C 266.99,121.46 262.99,164.46 259.5,207.5 Z"/></g>
<g><path style="opacity:0.004" fill="#cdffbc" d="M 37.5,75.5 C 37.8966,74.475 38.5632,74.3083 39.5,75C 38.9056,75.4643 38.2389,75.631 37.5,75.5 Z"/></g>
<g><path style="opacity:0.004" fill="#90ff76" d="M 241.5,76.5 C 241.897,75.475 242.563,75.3083 243.5,76C 242.906,76.4643 242.239,76.631 241.5,76.5 Z"/></g>
<g><path style="opacity:0.004" fill="#fefffe" d="M 52.5,81.5 C 53.8333,82.1667 53.8333,82.1667 52.5,81.5 Z"/></g>
<g><path style="opacity:0.004" fill="#fefffe" d="M 227.5,82.5 C 228.833,83.1667 228.833,83.1667 227.5,82.5 Z"/></g>
<g><path style="opacity:0.008" fill="#fffe82" d="M 138.5,85.5 C 138.5,88.1667 138.5,90.8333 138.5,93.5C 137.683,95.9686 137.183,98.6353 137,101.5C 135.873,98.1607 135.373,94.8274 135.5,91.5C 135.467,88.8984 136.467,86.8984 138.5,85.5 Z"/></g>
<g><path style="opacity:0.008" fill="#fffe82" d="M 142.5,86.5 C 143.79,87.0577 144.623,88.0577 145,89.5C 145.111,92.6446 145.278,95.6446 145.5,98.5C 145.281,99.938 144.781,101.271 144,102.5C 143.817,99.6353 143.317,96.9686 142.5,94.5C 142.5,91.8333 142.5,89.1667 142.5,86.5 Z"/></g>
<g><path style="opacity:0.004" fill="#fffe75" d="M 88.5,92.5 C 89.609,92.5569 90.609,92.8902 91.5,93.5C 91.189,94.4778 90.5223,95.1445 89.5,95.5C 89.4827,94.6063 89.1494,93.6063 88.5,92.5 Z"/></g>
<g><path style="opacity:0.004" fill="#fffe6e" d="M 192.5,93.5 C 191.851,94.6063 191.517,95.6063 191.5,96.5C 190.478,96.1445 189.811,95.4778 189.5,94.5C 190.391,93.8902 191.391,93.5569 192.5,93.5 Z"/></g>
<g><path style="opacity:0.004" fill="#fefffe" d="M 99.5,99.5 C 100.251,98.4265 101.251,98.2599 102.5,99C 101.552,99.4828 100.552,99.6495 99.5,99.5 Z"/></g>
<g><path style="opacity:0.004" fill="#fefffe" d="M 178.5,100.5 C 179.251,99.4265 180.251,99.2599 181.5,100C 180.552,100.483 179.552,100.649 178.5,100.5 Z"/></g>
<g><path style="opacity:0.004" fill="#fefffe" d="M 5.5,103.5 C 5.5,105.167 5.5,106.833 5.5,108.5C 3.07764,106.952 3.07764,105.286 5.5,103.5 Z"/></g>
<g><path style="opacity:0.055" fill="#bcf373" d="M 7.5,100.5 C 8.15339,101.807 8.82006,103.14 9.5,104.5C 8.2418,103.984 7.2418,104.65 6.5,106.5C 6.66972,110.318 6.66972,114.318 6.5,118.5C 6.5,119.167 6.16667,119.5 5.5,119.5C 5.5,115.833 5.5,112.167 5.5,108.5C 5.5,106.833 5.5,105.167 5.5,103.5C 5.42702,101.973 6.09368,100.973 7.5,100.5 Z"/></g>
<g><path style="opacity:0.004" fill="#fefffe" d="M 116.5,105.5 C 117.743,104.263 118.743,104.596 119.5,106.5C 119.167,106.833 118.833,107.167 118.5,107.5C 117.818,106.757 117.151,106.091 116.5,105.5 Z"/></g>
<g><path style="opacity:0.004" fill="#fefffe" d="M 162.5,105.5 C 164.656,105.872 164.656,106.872 162.5,108.5C 161.438,107.575 161.438,106.575 162.5,105.5 Z"/></g>
<g><path style="opacity:0.004" fill="#fefffe" d="M 122.5,108.5 C 123.077,107.227 123.743,107.227 124.5,108.5C 124.03,109.463 123.363,109.463 122.5,108.5 Z"/></g>
<g><path style="opacity:0.016" fill="#ff5a50" d="M 103.5,108.5 C 102.833,109.833 102.167,109.833 101.5,108.5C 102.167,107.167 102.833,107.167 103.5,108.5 Z"/></g>
<g><path style="opacity:0.004" fill="#fefffe" d="M 156.5,108.5 C 159.001,108.511 159.168,109.178 157,110.5C 156.536,109.906 156.369,109.239 156.5,108.5 Z"/></g>
<g><path style="opacity:0.012" fill="#ff5046" d="M 179.5,109.5 C 178.833,110.833 178.167,110.833 177.5,109.5C 178.167,108.167 178.833,108.167 179.5,109.5 Z"/></g>
<g><path style="opacity:0.004" fill="#fefffe" d="M 128.5,111.5 C 129.289,111.783 129.956,112.283 130.5,113C 129.184,113.528 128.517,113.028 128.5,111.5 Z"/></g>
<g><path style="opacity:0.004" fill="#fefffe" d="M 151.5,112.5 C 152.773,113.077 152.773,113.743 151.5,114.5C 150.537,114.03 150.537,113.363 151.5,112.5 Z"/></g>
<g><path style="opacity:0.008" fill="#fffe83" d="M 8.5,123.5 C 7.60895,122.89 6.60895,122.557 5.5,122.5C 5.5,121.5 5.5,120.5 5.5,119.5C 6.16667,119.5 6.5,119.167 6.5,118.5C 7.74975,118.423 8.58309,117.756 9,116.5C 9.5564,118.885 9.38973,121.218 8.5,123.5 Z"/></g>
<g><path style="opacity:0.008" fill="#feff7f" d="M 273.5,119.5 C 273.5,121.167 273.5,122.833 273.5,124.5C 273.167,124.5 272.833,124.5 272.5,124.5C 271.61,122.218 271.444,119.885 272,117.5C 272.278,118.416 272.778,119.082 273.5,119.5 Z"/></g>
<g><path style="opacity:0.004" fill="#fffcfb" d="M 5.5,122.5 C 6.60895,122.557 7.60895,122.89 8.5,123.5C 8.83333,123.5 9.16667,123.5 9.5,123.5C 9.32842,124.492 9.66175,125.158 10.5,125.5C 10.8789,129.015 11.8789,132.348 13.5,135.5C 12.6906,137.071 12.3573,138.738 12.5,140.5C 11.4233,143.526 11.4233,146.526 12.5,149.5C 12.9569,150.298 13.6236,150.631 14.5,150.5C 13.8505,152.435 13.5172,154.435 13.5,156.5C 12.7321,155.737 12.2321,154.737 12,153.5C 11.3076,154.025 10.8076,154.692 10.5,155.5C 10.8607,158.682 11.0274,162.015 11,165.5C 9.74848,163.999 8.74848,162.332 8,160.5C 8.53998,153.679 9.37331,146.846 10.5,140C 10.0742,136.33 8.74084,133.163 6.5,130.5C 7.83333,129.167 7.83333,127.833 6.5,126.5C 5.76589,125.292 5.43255,123.959 5.5,122.5 Z"/></g>
<g><path style="opacity:0.004" fill="#fffcfa" d="M 271.5,124.5 C 271.833,124.5 272.167,124.5 272.5,124.5C 272.833,124.5 273.167,124.5 273.5,124.5C 273.593,130.203 272.593,135.703 270.5,141C 271.255,147.04 272.255,153.04 273.5,159C 273.007,161.819 271.84,164.319 270,166.5C 269.973,163.015 270.139,159.682 270.5,156.5C 270.192,155.692 269.692,155.025 269,154.5C 268.768,155.737 268.268,156.737 267.5,157.5C 267.483,155.435 267.15,153.435 266.5,151.5C 267.75,151.423 268.583,150.756 269,149.5C 269.43,146.808 269.263,144.141 268.5,141.5C 268.643,139.738 268.309,138.071 267.5,136.5C 269.121,133.348 270.121,130.015 270.5,126.5C 271.338,126.158 271.672,125.492 271.5,124.5 Z"/></g>
<g><path style="opacity:0.004" fill="#e0ffd5" d="M 6.5,126.5 C 6.5,127.833 6.5,129.167 6.5,130.5C 5.54163,130.953 4.7083,131.619 4,132.5C 3.50454,130.527 3.33788,128.527 3.5,126.5C 4.5,126.5 5.5,126.5 6.5,126.5 Z"/></g>
<g><path style="opacity:0.004" fill="#fefffe" d="M 136.5,146.5 C 135.313,140.552 135.313,134.552 136.5,128.5C 136.369,127.624 136.702,126.957 137.5,126.5C 137.833,128.333 138.167,130.167 138.5,132C 136.894,136.856 136.228,141.69 136.5,146.5 Z"/></g>
<g><path style="opacity:0.004" fill="#fefffe" d="M 144.5,129.5 C 145.687,135.552 145.687,141.552 144.5,147.5C 144.772,142.69 144.106,137.856 142.5,133C 142.833,131.167 143.167,129.333 143.5,127.5C 144.298,127.957 144.631,128.624 144.5,129.5 Z"/></g>
<g><path style="opacity:0.008" fill="#fffe7e" d="M 14.5,170.5 C 15.1667,170.833 15.8333,171.167 16.5,171.5C 14.5586,173.316 13.8919,175.316 14.5,177.5C 13.3065,177.03 12.6399,176.03 12.5,174.5C 12.8029,172.886 13.4695,171.552 14.5,170.5 Z"/></g>
<g><path style="opacity:0.008" fill="#fffe7e" d="M 266.5,171.5 C 267.53,172.552 268.197,173.886 268.5,175.5C 268.36,177.03 267.693,178.03 266.5,178.5C 267.108,176.316 266.441,174.316 264.5,172.5C 265.167,172.167 265.833,171.833 266.5,171.5 Z"/></g>
<g><path style="opacity:0.004" fill="#fefffe" d="M 109.5,172.5 C 112.674,172.952 113.007,173.952 110.5,175.5C 108.481,174.867 108.147,173.867 109.5,172.5 Z"/></g>
<g><path style="opacity:0.004" fill="#fefffe" d="M 169.5,173.5 C 172.674,173.952 173.007,174.952 170.5,176.5C 168.481,175.867 168.147,174.867 169.5,173.5 Z"/></g>
<g><path style="opacity:0.004" fill="#fefffe" d="M 115.5,175.5 C 117.983,175.73 118.483,176.397 117,177.5C 115.97,177.164 115.47,176.497 115.5,175.5 Z"/></g>
<g><path style="opacity:0.004" fill="#fefffe" d="M 163.5,176.5 C 164.376,176.369 165.043,176.702 165.5,177.5C 163.192,178.873 162.525,178.54 163.5,176.5 Z"/></g>
<g><path style="opacity:0.004" fill="#fffefb" d="M 14.5,170.5 C 13.4695,171.552 12.8029,172.886 12.5,174.5C 12.6399,176.03 13.3065,177.03 14.5,177.5C 14.5,177.833 14.5,178.167 14.5,178.5C 14.5,179.167 14.5,179.833 14.5,180.5C 14.1667,181.833 13.8333,183.167 13.5,184.5C 12.8333,184.167 12.1667,183.833 11.5,183.5C 11.5886,178.912 10.9219,174.746 9.5,171C 11.1341,170.506 12.8008,170.34 14.5,170.5 Z"/></g>
<g><path style="opacity:0.004" fill="#fffefb" d="M 266.5,171.5 C 268.199,171.34 269.866,171.506 271.5,172C 270.078,175.746 269.411,179.912 269.5,184.5C 268.833,184.833 268.167,185.167 267.5,185.5C 267.167,184.167 266.833,182.833 266.5,181.5C 266.5,180.833 266.5,180.167 266.5,179.5C 266.5,179.167 266.5,178.833 266.5,178.5C 267.693,178.03 268.36,177.03 268.5,175.5C 268.197,173.886 267.53,172.552 266.5,171.5 Z"/></g>
<g><path style="opacity:0.004" fill="#fffefd" d="M 134.5,183.5 C 135.833,183.5 137.167,183.5 138.5,183.5C 138.666,192.839 138.5,202.173 138,211.5C 137.626,210.584 137.126,209.75 136.5,209C 134.744,208.798 133.078,208.298 131.5,207.5C 133.501,205.513 134.335,203.18 134,200.5C 131.028,199.948 128.195,198.448 125.5,196C 127.668,191.035 130.668,186.868 134.5,183.5 Z"/></g>
<g><path style="opacity:0.004" fill="#fffefd" d="M 142.5,184.5 C 143.833,184.5 145.167,184.5 146.5,184.5C 150.332,187.868 153.332,192.035 155.5,197C 152.805,199.448 149.972,200.948 147,201.5C 146.665,204.18 147.499,206.513 149.5,208.5C 147.922,209.298 146.256,209.798 144.5,210C 143.874,210.75 143.374,211.584 143,212.5C 142.5,203.173 142.334,193.839 142.5,184.5 Z"/></g>
<g><path style="opacity:0.008" fill="#e9ff89" d="M 11.5,183.5 C 12.1667,183.833 12.8333,184.167 13.5,184.5C 13.7959,186.403 14.4625,188.07 15.5,189.5C 14.713,191.104 13.3797,191.771 11.5,191.5C 12.8255,188.487 12.8255,185.82 11.5,183.5 Z"/></g>
<g><path style="opacity:0.008" fill="#e9ff89" d="M 269.5,184.5 C 268.174,186.82 268.174,189.487 269.5,192.5C 267.62,192.771 266.287,192.104 265.5,190.5C 266.537,189.07 267.204,187.403 267.5,185.5C 268.167,185.167 268.833,184.833 269.5,184.5 Z"/></g>
<g><path style="opacity:0.004" fill="#fefffe" d="M 16.5,194.5 C 16.6287,196.216 16.962,197.883 17.5,199.5C 17.0312,201.995 17.0312,204.661 17.5,207.5C 15.4658,204.09 13.7992,200.423 12.5,196.5C 13.5769,195.295 14.9102,194.628 16.5,194.5 Z"/></g>
<g><path style="opacity:0.004" fill="#fefffe" d="M 87.5,195.5 C 88.0768,194.227 88.7435,194.227 89.5,195.5C 89.0302,196.463 88.3635,196.463 87.5,195.5 Z"/></g>
<g><path style="opacity:0.004" fill="#fefffe" d="M 191.5,195.5 C 194.001,195.511 194.168,196.178 192,197.5C 191.536,196.906 191.369,196.239 191.5,195.5 Z"/></g>
<g><path style="opacity:0.004" fill="#fefffe" d="M 264.5,195.5 C 266.09,195.628 267.423,196.295 268.5,197.5C 267.201,201.423 265.534,205.09 263.5,208.5C 263.721,204.257 264.054,199.923 264.5,195.5 Z"/></g>
<g><path style="opacity:0.008" fill="#faf889" d="M 17.5,199.5 C 18.8277,201.444 19.161,203.444 18.5,205.5C 18.6716,206.492 18.3382,207.158 17.5,207.5C 17.0312,204.661 17.0312,201.995 17.5,199.5 Z"/></g>
<g><path style="opacity:0.008" fill="#fffe64" d="M 132.5,222.5 C 131.833,223.833 131.167,223.833 130.5,222.5C 131.167,221.167 131.833,221.167 132.5,222.5 Z"/></g>
<g><path style="opacity:0.183" fill="#d0bfac" d="M 102.5,164.5 C 88.5644,159.116 75.0644,152.782 62,145.5C 57.5328,147.283 57.3661,149.449 61.5,152C 60.9747,152.692 60.3081,153.192 59.5,153.5C 58.6764,156.785 58.1764,160.118 58,163.5C 55.6321,165.684 54.9654,168.351 56,171.5C 56.3076,170.692 56.8076,170.025 57.5,169.5C 57.8333,170.667 58.1667,171.833 58.5,173C 56.9043,175.875 55.9043,179.042 55.5,182.5C 58.2469,182.187 60.9135,182.52 63.5,183.5C 62.1667,184.167 60.8333,184.833 59.5,185.5C 63.2901,187.625 67.4567,189.958 72,192.5C 73.3561,191.62 74.8561,191.286 76.5,191.5C 77.0908,195.964 79.7575,198.13 84.5,198C 90.5113,202.193 96.678,206.026 103,209.5C 104.049,208.483 105.216,208.316 106.5,209C 110.248,213.718 115.582,216.551 122.5,217.5C 122.281,218.675 122.614,219.675 123.5,220.5C 125.801,221.325 128.135,221.992 130.5,222.5C 131.167,223.833 131.833,223.833 132.5,222.5C 133.482,223.141 134.482,223.807 135.5,224.5C 136.167,223.833 136.833,223.167 137.5,222.5C 138.666,241.158 138.833,259.824 138,278.5C 136.333,277.167 134.667,275.833 133,274.5C 132.415,273.002 132.915,272.002 134.5,271.5C 135.117,271.611 135.617,271.944 136,272.5C 136.969,257.768 136.469,243.102 134.5,228.5C 108.325,214.245 81.9919,200.245 55.5,186.5C 54.6816,183.893 54.1816,181.226 54,178.5C 53.3333,165.5 53.3333,152.5 54,139.5C 70.3062,147.735 86.4729,156.069 102.5,164.5 Z"/></g>
<g><path style="opacity:0.004" fill="#fefffe" d="M 61.5,155.5 C 61.8966,154.475 62.5632,154.308 63.5,155C 62.9056,155.464 62.2389,155.631 61.5,155.5 Z"/></g>
<g><path style="opacity:0.004" fill="#fefffe" d="M 62.5,148.5 C 63.8333,149.167 63.8333,149.167 62.5,148.5 Z"/></g>
<g><path style="opacity:0.183" fill="#d0c0ac" d="M 146.5,272.5 C 147.478,272.811 148.145,273.478 148.5,274.5C 146.994,276.401 145.327,278.068 143.5,279.5C 143.167,279.5 142.833,279.5 142.5,279.5C 142.167,260.821 142.5,242.155 143.5,223.5C 144.167,224.167 144.833,224.833 145.5,225.5C 146.518,224.807 147.518,224.141 148.5,223.5C 149.167,224.833 149.833,224.833 150.5,223.5C 152.865,222.992 155.199,222.325 157.5,221.5C 158.386,220.675 158.719,219.675 158.5,218.5C 165.418,217.551 170.752,214.718 174.5,210C 175.784,209.316 176.951,209.483 178,210.5C 184.322,207.026 190.489,203.193 196.5,199C 201.243,199.13 203.909,196.964 204.5,192.5C 209.644,193.445 213.977,191.779 217.5,187.5C 218.962,188.471 220.295,188.138 221.5,186.5C 220.167,185.833 218.833,185.167 217.5,184.5C 220.086,183.52 222.753,183.187 225.5,183.5C 225.096,180.042 224.096,176.875 222.5,174C 222.833,172.833 223.167,171.667 223.5,170.5C 224.192,171.025 224.692,171.692 225,172.5C 226.035,169.351 225.368,166.684 223,164.5C 222.824,161.118 222.324,157.785 221.5,154.5C 220.692,154.192 220.025,153.692 219.5,153C 223.634,150.449 223.467,148.283 219,146.5C 205.936,153.782 192.436,160.116 178.5,165.5C 194.527,157.069 210.694,148.735 227,140.5C 227.667,153.5 227.667,166.5 227,179.5C 226.818,182.226 226.318,184.893 225.5,187.5C 199.008,201.245 172.675,215.245 146.5,229.5C 145.037,238.263 144.37,247.097 144.5,256C 144.505,261.876 145.171,267.376 146.5,272.5 Z"/></g>
<g><path style="opacity:0.004" fill="#fefffe" d="M 217.5,156.5 C 217.897,155.475 218.563,155.308 219.5,156C 218.906,156.464 218.239,156.631 217.5,156.5 Z"/></g>
<g><path style="opacity:0.004" fill="#fefffe" d="M 217.5,149.5 C 218.833,150.167 218.833,150.167 217.5,149.5 Z"/></g>
<g><path style="opacity:0.008" fill="#fffe64" d="M 150.5,223.5 C 149.833,224.833 149.167,224.833 148.5,223.5C 149.167,222.167 149.833,222.167 150.5,223.5 Z"/></g>
<g><path style="opacity:0.004" fill="#fefffe" d="M 115.5,268.5 C 116.289,268.783 116.956,269.283 117.5,270C 116.184,270.528 115.517,270.028 115.5,268.5 Z"/></g>
<g><path style="opacity:0.004" fill="#fefffe" d="M 164.5,269.5 C 165.773,270.077 165.773,270.743 164.5,271.5C 163.537,271.03 163.537,270.363 164.5,269.5 Z"/></g>
<g><path style="opacity:0.004" fill="#fefffe" d="M 117.5,271.5 C 118.573,272.251 118.74,273.251 118,274.5C 117.517,273.552 117.351,272.552 117.5,271.5 Z"/></g>
<g><path style="opacity:0.004" fill="#fefffe" d="M 122.5,272.5 C 127.706,274.464 127.706,275.63 122.5,276C 121.829,275.014 121.829,273.847 122.5,272.5 Z"/></g>
<g><path style="opacity:0.004" fill="#fefffe" d="M 162.5,272.5 C 163.573,273.251 163.74,274.251 163,275.5C 162.517,274.552 162.351,273.552 162.5,272.5 Z"/></g>
<g><path style="opacity:0.004" fill="#fefffe" d="M 157.5,273.5 C 160.126,275.264 159.959,276.597 157,277.5C 155.941,277.37 155.108,276.87 154.5,276C 155.571,275.148 156.571,274.315 157.5,273.5 Z"/></g>
<g><path style="opacity:0.004" fill="#fefffe" d="M 130.5,277.5 C 131.251,276.427 132.251,276.26 133.5,277C 132.552,277.483 131.552,277.649 130.5,277.5 Z"/></g>
<g><path style="opacity:0.004" fill="#fefffe" d="M 147.5,278.5 C 148.251,277.427 149.251,277.26 150.5,278C 149.552,278.483 148.552,278.649 147.5,278.5 Z"/></g>
</svg>
