<svg width="43" height="36" viewBox="0 0 43 36" fill="none" xmlns="http://www.w3.org/2000/svg">
<path d="M36.8626 20.7358V34.2042C36.8626 34.6906 36.6937 35.1115 36.3559 35.4669C36.0181 35.8223 35.618 36 35.1557 36H24.9139V25.2253H18.0861V36H7.84431C7.38201 36 6.98194 35.8223 6.64411 35.4669C6.30627 35.1115 6.13735 34.6906 6.13735 34.2042V20.7358C6.13735 20.7171 6.1418 20.689 6.15069 20.6516C6.15958 20.6142 6.16403 20.5861 6.16403 20.5674L21.5 7.26734L36.836 20.5674C36.8538 20.6048 36.8626 20.661 36.8626 20.7358ZM42.8103 18.7997L41.1567 20.8761C41.0145 21.0444 40.8278 21.1473 40.5966 21.1847H40.5166C40.2855 21.1847 40.0988 21.1193 39.9565 20.9883L21.5 4.79813L3.04349 20.9883C2.83012 21.138 2.61675 21.2034 2.40338 21.1847C2.17223 21.1473 1.98553 21.0444 1.84328 20.8761L0.189662 18.7997C0.0474156 18.6126 -0.0148174 18.3928 0.00296347 18.1403C0.0207443 17.8878 0.118539 17.6867 0.296347 17.537L19.473 0.72954C20.042 0.24318 20.7176 0 21.5 0C22.2824 0 22.958 0.24318 23.527 0.72954L30.0348 6.45362V0.982073C30.0348 0.720187 30.1148 0.505066 30.2748 0.336711C30.4349 0.168355 30.6394 0.0841777 30.8883 0.0841777H36.0092C36.2581 0.0841777 36.4626 0.168355 36.6226 0.336711C36.7826 0.505066 36.8626 0.720187 36.8626 0.982073V12.4302L42.7037 17.537C42.8815 17.6867 42.9793 17.8878 42.997 18.1403C43.0148 18.3928 42.9526 18.6126 42.8103 18.7997Z" fill="black"/>
</svg>
