<svg width="33" height="39" viewBox="0 0 33 39" fill="none" xmlns="http://www.w3.org/2000/svg">
<path d="M24.1593 23.1796L15.758 31.2421L7.35676 23.1796C6.988 22.8265 6.48785 22.6282 5.96635 22.6282C5.44484 22.6282 4.94469 22.8265 4.57593 23.1796C4.20717 23.5327 4 24.0116 4 24.5109C4 25.0102 4.20717 25.489 4.57593 25.8421L14.3676 35.2171C14.5496 35.3929 14.7662 35.5323 15.0049 35.6275C15.2435 35.7227 15.4995 35.7717 15.758 35.7717C16.0165 35.7717 16.2725 35.7227 16.5111 35.6275C16.7498 35.5323 16.9664 35.3929 17.1484 35.2171L26.9401 25.8421C27.1227 25.6673 27.2675 25.4598 27.3663 25.2313C27.4652 25.0029 27.516 24.7581 27.516 24.5109C27.516 24.2636 27.4652 24.0188 27.3663 23.7904C27.2675 23.562 27.1227 23.3544 26.9401 23.1796C26.7575 23.0048 26.5407 22.8661 26.3022 22.7715C26.0636 22.6769 25.8079 22.6282 25.5497 22.6282C25.2915 22.6282 25.0358 22.6769 24.7972 22.7715C24.5586 22.8661 24.3419 23.0048 24.1593 23.1796ZM7.35676 14.5921L15.758 6.52962L24.1593 14.5921C24.3413 14.7679 24.5579 14.9073 24.7965 15.0025C25.0352 15.0977 25.2912 15.1467 25.5497 15.1467C25.8082 15.1467 26.0642 15.0977 26.3028 15.0025C26.5415 14.9073 26.758 14.7679 26.9401 14.5921C27.1236 14.4178 27.2693 14.2104 27.3688 13.982C27.4682 13.7535 27.5194 13.5084 27.5194 13.2609C27.5194 13.0133 27.4682 12.7683 27.3688 12.5398C27.2693 12.3113 27.1236 12.1039 26.9401 11.9296L17.1484 2.55462C16.9664 2.37888 16.7498 2.23939 16.5111 2.1442C16.2725 2.04901 16.0165 2 15.758 2C15.4995 2 15.2435 2.04901 15.0049 2.1442C14.7662 2.23939 14.5496 2.37888 14.3676 2.55462L4.57593 11.9296C4.20717 12.2827 4 12.7616 4 13.2609C4 13.7602 4.20717 14.2391 4.57593 14.5921C4.94469 14.9452 5.44484 15.1435 5.96635 15.1435C6.48785 15.1435 6.988 14.9452 7.35676 14.5921Z" fill="black"/>
</svg>
